<svg xmlns="http://www.w3.org/2000/svg" width="2048" height="2048" viewBox="0 0 2048 2048" shape-rendering="crispEdges"><rect width="2048" height="2048" fill="#ffffff"/><g fill="#0c1118"><rect x="221.41" y="221.41" width="55.85" height="55.85"/><rect x="276.76" y="221.41" width="55.85" height="55.85"/><rect x="332.11" y="221.41" width="55.85" height="55.85"/><rect x="387.46" y="221.41" width="55.85" height="55.85"/><rect x="442.81" y="221.41" width="55.85" height="55.85"/><rect x="498.16" y="221.41" width="55.85" height="55.85"/><rect x="553.51" y="221.41" width="55.85" height="55.85"/><rect x="664.22" y="221.41" width="55.85" height="55.85"/><rect x="774.92" y="221.41" width="55.85" height="55.85"/><rect x="830.27" y="221.41" width="55.85" height="55.85"/><rect x="885.62" y="221.41" width="55.85" height="55.85"/><rect x="1051.68" y="221.41" width="55.85" height="55.85"/><rect x="1107.03" y="221.41" width="55.85" height="55.85"/><rect x="1162.38" y="221.41" width="55.85" height="55.85"/><rect x="1217.73" y="221.41" width="55.85" height="55.85"/><rect x="1439.14" y="221.41" width="55.85" height="55.85"/><rect x="1494.49" y="221.41" width="55.85" height="55.85"/><rect x="1549.84" y="221.41" width="55.85" height="55.85"/><rect x="1605.19" y="221.41" width="55.85" height="55.85"/><rect x="1660.54" y="221.41" width="55.85" height="55.85"/><rect x="1715.89" y="221.41" width="55.85" height="55.85"/><rect x="1771.24" y="221.41" width="55.85" height="55.85"/><rect x="221.41" y="276.76" width="55.85" height="55.85"/><rect x="553.51" y="276.76" width="55.85" height="55.85"/><rect x="664.22" y="276.76" width="55.85" height="55.85"/><rect x="719.57" y="276.76" width="55.85" height="55.85"/><rect x="830.27" y="276.76" width="55.85" height="55.85"/><rect x="885.62" y="276.76" width="55.85" height="55.85"/><rect x="1107.03" y="276.76" width="55.85" height="55.85"/><rect x="1217.73" y="276.76" width="55.85" height="55.85"/><rect x="1273.08" y="276.76" width="55.85" height="55.85"/><rect x="1439.14" y="276.76" width="55.85" height="55.85"/><rect x="1771.24" y="276.76" width="55.85" height="55.85"/><rect x="221.41" y="332.11" width="55.85" height="55.85"/><rect x="332.11" y="332.11" width="55.85" height="55.85"/><rect x="387.46" y="332.11" width="55.85" height="55.85"/><rect x="442.81" y="332.11" width="55.85" height="55.85"/><rect x="553.51" y="332.11" width="55.85" height="55.85"/><rect x="664.22" y="332.11" width="55.85" height="55.85"/><rect x="719.57" y="332.11" width="55.85" height="55.85"/><rect x="885.62" y="332.11" width="55.85" height="55.85"/><rect x="1051.68" y="332.11" width="55.85" height="55.85"/><rect x="1107.03" y="332.11" width="55.85" height="55.85"/><rect x="1273.08" y="332.11" width="55.85" height="55.85"/><rect x="1439.14" y="332.11" width="55.85" height="55.85"/><rect x="1549.84" y="332.11" width="55.85" height="55.85"/><rect x="1605.19" y="332.11" width="55.85" height="55.85"/><rect x="1660.54" y="332.11" width="55.85" height="55.85"/><rect x="1771.24" y="332.11" width="55.85" height="55.85"/><rect x="221.41" y="387.46" width="55.85" height="55.85"/><rect x="332.11" y="387.46" width="55.85" height="55.85"/><rect x="387.46" y="387.46" width="55.85" height="55.85"/><rect x="442.81" y="387.46" width="55.85" height="55.85"/><rect x="553.51" y="387.46" width="55.85" height="55.85"/><rect x="719.57" y="387.46" width="55.85" height="55.85"/><rect x="1107.03" y="387.46" width="55.85" height="55.85"/><rect x="1162.38" y="387.46" width="55.85" height="55.85"/><rect x="1273.08" y="387.46" width="55.85" height="55.85"/><rect x="1439.14" y="387.46" width="55.85" height="55.85"/><rect x="1549.84" y="387.46" width="55.85" height="55.85"/><rect x="1605.19" y="387.46" width="55.85" height="55.85"/><rect x="1660.54" y="387.46" width="55.85" height="55.85"/><rect x="1771.24" y="387.46" width="55.85" height="55.85"/><rect x="221.41" y="442.81" width="55.85" height="55.85"/><rect x="332.11" y="442.81" width="55.85" height="55.85"/><rect x="387.46" y="442.81" width="55.85" height="55.85"/><rect x="442.81" y="442.81" width="55.85" height="55.85"/><rect x="553.51" y="442.81" width="55.85" height="55.85"/><rect x="664.22" y="442.81" width="55.85" height="55.85"/><rect x="774.92" y="442.81" width="55.85" height="55.85"/><rect x="996.32" y="442.81" width="55.85" height="55.85"/><rect x="1051.68" y="442.81" width="55.85" height="55.85"/><rect x="1107.03" y="442.81" width="55.85" height="55.85"/><rect x="1217.73" y="442.81" width="55.85" height="55.85"/><rect x="1273.08" y="442.81" width="55.85" height="55.85"/><rect x="1439.14" y="442.81" width="55.85" height="55.85"/><rect x="1549.84" y="442.81" width="55.85" height="55.85"/><rect x="1605.19" y="442.81" width="55.85" height="55.85"/><rect x="1660.54" y="442.81" width="55.85" height="55.85"/><rect x="1771.24" y="442.81" width="55.85" height="55.85"/><rect x="221.41" y="498.16" width="55.85" height="55.85"/><rect x="553.51" y="498.16" width="55.85" height="55.85"/><rect x="719.57" y="498.16" width="55.85" height="55.85"/><rect x="885.62" y="498.16" width="55.85" height="55.85"/><rect x="1051.68" y="498.16" width="55.85" height="55.85"/><rect x="1107.03" y="498.16" width="55.85" height="55.85"/><rect x="1162.38" y="498.16" width="55.85" height="55.85"/><rect x="1217.73" y="498.16" width="55.85" height="55.85"/><rect x="1328.43" y="498.16" width="55.85" height="55.85"/><rect x="1439.14" y="498.16" width="55.85" height="55.85"/><rect x="1771.24" y="498.16" width="55.85" height="55.85"/><rect x="221.41" y="553.51" width="55.85" height="55.85"/><rect x="276.76" y="553.51" width="55.85" height="55.85"/><rect x="332.11" y="553.51" width="55.85" height="55.85"/><rect x="387.46" y="553.51" width="55.85" height="55.85"/><rect x="442.81" y="553.51" width="55.85" height="55.85"/><rect x="498.16" y="553.51" width="55.85" height="55.85"/><rect x="553.51" y="553.51" width="55.85" height="55.85"/><rect x="664.22" y="553.51" width="55.85" height="55.85"/><rect x="774.92" y="553.51" width="55.85" height="55.85"/><rect x="885.62" y="553.51" width="55.85" height="55.85"/><rect x="996.32" y="553.51" width="55.85" height="55.85"/><rect x="1107.03" y="553.51" width="55.85" height="55.85"/><rect x="1217.73" y="553.51" width="55.85" height="55.85"/><rect x="1328.43" y="553.51" width="55.85" height="55.85"/><rect x="1439.14" y="553.51" width="55.85" height="55.85"/><rect x="1494.49" y="553.51" width="55.85" height="55.85"/><rect x="1549.84" y="553.51" width="55.85" height="55.85"/><rect x="1605.19" y="553.51" width="55.85" height="55.85"/><rect x="1660.54" y="553.51" width="55.85" height="55.85"/><rect x="1715.89" y="553.51" width="55.85" height="55.85"/><rect x="1771.24" y="553.51" width="55.85" height="55.85"/><rect x="774.92" y="608.86" width="55.85" height="55.85"/><rect x="830.27" y="608.86" width="55.85" height="55.85"/><rect x="940.97" y="608.86" width="55.85" height="55.85"/><rect x="1051.68" y="608.86" width="55.85" height="55.85"/><rect x="1107.03" y="608.86" width="55.85" height="55.85"/><rect x="221.41" y="664.22" width="55.85" height="55.85"/><rect x="387.46" y="664.22" width="55.85" height="55.85"/><rect x="442.81" y="664.22" width="55.85" height="55.85"/><rect x="498.16" y="664.22" width="55.85" height="55.85"/><rect x="553.51" y="664.22" width="55.85" height="55.85"/><rect x="608.86" y="664.22" width="55.85" height="55.85"/><rect x="664.22" y="664.22" width="55.85" height="55.85"/><rect x="885.62" y="664.22" width="55.85" height="55.85"/><rect x="940.97" y="664.22" width="55.85" height="55.85"/><rect x="1162.38" y="664.22" width="55.85" height="55.85"/><rect x="1217.73" y="664.22" width="55.85" height="55.85"/><rect x="1273.08" y="664.22" width="55.85" height="55.85"/><rect x="1383.78" y="664.22" width="55.85" height="55.85"/><rect x="1549.84" y="664.22" width="55.85" height="55.85"/><rect x="1660.54" y="664.22" width="55.85" height="55.85"/><rect x="1715.89" y="664.22" width="55.85" height="55.85"/><rect x="1771.24" y="664.22" width="55.85" height="55.85"/><rect x="221.41" y="719.57" width="55.85" height="55.85"/><rect x="276.76" y="719.57" width="55.85" height="55.85"/><rect x="387.46" y="719.57" width="55.85" height="55.85"/><rect x="442.81" y="719.57" width="55.85" height="55.85"/><rect x="608.86" y="719.57" width="55.85" height="55.85"/><rect x="664.22" y="719.57" width="55.85" height="55.85"/><rect x="719.57" y="719.57" width="55.85" height="55.85"/><rect x="774.92" y="719.57" width="55.85" height="55.85"/><rect x="830.27" y="719.57" width="55.85" height="55.85"/><rect x="940.97" y="719.57" width="55.85" height="55.85"/><rect x="1107.03" y="719.57" width="55.85" height="55.85"/><rect x="1162.38" y="719.57" width="55.85" height="55.85"/><rect x="1217.73" y="719.57" width="55.85" height="55.85"/><rect x="1273.08" y="719.57" width="55.85" height="55.85"/><rect x="1494.49" y="719.57" width="55.85" height="55.85"/><rect x="1549.84" y="719.57" width="55.85" height="55.85"/><rect x="1660.54" y="719.57" width="55.85" height="55.85"/><rect x="1715.89" y="719.57" width="55.85" height="55.85"/><rect x="221.41" y="774.92" width="55.85" height="55.85"/><rect x="387.46" y="774.92" width="55.85" height="55.85"/><rect x="442.81" y="774.92" width="55.85" height="55.85"/><rect x="553.51" y="774.92" width="55.85" height="55.85"/><rect x="608.86" y="774.92" width="55.85" height="55.85"/><rect x="719.57" y="774.92" width="55.85" height="55.85"/><rect x="830.27" y="774.92" width="55.85" height="55.85"/><rect x="940.97" y="774.92" width="55.85" height="55.85"/><rect x="1051.68" y="774.92" width="55.85" height="55.85"/><rect x="1107.03" y="774.92" width="55.85" height="55.85"/><rect x="1439.14" y="774.92" width="55.85" height="55.85"/><rect x="1494.49" y="774.92" width="55.85" height="55.85"/><rect x="1549.84" y="774.92" width="55.85" height="55.85"/><rect x="1660.54" y="774.92" width="55.85" height="55.85"/><rect x="221.41" y="830.27" width="55.85" height="55.85"/><rect x="276.76" y="830.27" width="55.85" height="55.85"/><rect x="332.11" y="830.27" width="55.85" height="55.85"/><rect x="442.81" y="830.27" width="55.85" height="55.85"/><rect x="608.86" y="830.27" width="55.85" height="55.85"/><rect x="774.92" y="830.27" width="55.85" height="55.85"/><rect x="830.27" y="830.27" width="55.85" height="55.85"/><rect x="940.97" y="830.27" width="55.85" height="55.85"/><rect x="1107.03" y="830.27" width="55.85" height="55.85"/><rect x="1162.38" y="830.27" width="55.85" height="55.85"/><rect x="1217.73" y="830.27" width="55.85" height="55.85"/><rect x="1383.78" y="830.27" width="55.85" height="55.85"/><rect x="1494.49" y="830.27" width="55.85" height="55.85"/><rect x="1605.19" y="830.27" width="55.85" height="55.85"/><rect x="1771.24" y="830.27" width="55.85" height="55.85"/><rect x="276.76" y="885.62" width="55.85" height="55.85"/><rect x="332.11" y="885.62" width="55.85" height="55.85"/><rect x="498.16" y="885.62" width="55.85" height="55.85"/><rect x="553.51" y="885.62" width="55.85" height="55.85"/><rect x="719.57" y="885.62" width="55.85" height="55.85"/><rect x="830.27" y="885.62" width="55.85" height="55.85"/><rect x="885.62" y="885.62" width="55.85" height="55.85"/><rect x="940.97" y="885.62" width="55.85" height="55.85"/><rect x="1051.68" y="885.62" width="55.85" height="55.85"/><rect x="1107.03" y="885.62" width="55.85" height="55.85"/><rect x="1328.43" y="885.62" width="55.85" height="55.85"/><rect x="1439.14" y="885.62" width="55.85" height="55.85"/><rect x="1771.24" y="885.62" width="55.85" height="55.85"/><rect x="332.11" y="940.97" width="55.85" height="55.85"/><rect x="387.46" y="940.97" width="55.85" height="55.85"/><rect x="442.81" y="940.97" width="55.85" height="55.85"/><rect x="608.86" y="940.97" width="55.85" height="55.85"/><rect x="664.22" y="940.97" width="55.85" height="55.85"/><rect x="830.27" y="940.97" width="55.85" height="55.85"/><rect x="885.62" y="940.97" width="55.85" height="55.85"/><rect x="940.97" y="940.97" width="55.85" height="55.85"/><rect x="996.32" y="940.97" width="55.85" height="55.85"/><rect x="1107.03" y="940.97" width="55.85" height="55.85"/><rect x="1383.78" y="940.97" width="55.85" height="55.85"/><rect x="1439.14" y="940.97" width="55.85" height="55.85"/><rect x="1494.49" y="940.97" width="55.85" height="55.85"/><rect x="1549.84" y="940.97" width="55.85" height="55.85"/><rect x="1605.19" y="940.97" width="55.85" height="55.85"/><rect x="1660.54" y="940.97" width="55.85" height="55.85"/><rect x="1715.89" y="940.97" width="55.85" height="55.85"/><rect x="1771.24" y="940.97" width="55.85" height="55.85"/><rect x="221.41" y="996.32" width="55.85" height="55.85"/><rect x="387.46" y="996.32" width="55.85" height="55.85"/><rect x="553.51" y="996.32" width="55.85" height="55.85"/><rect x="608.86" y="996.32" width="55.85" height="55.85"/><rect x="664.22" y="996.32" width="55.85" height="55.85"/><rect x="940.97" y="996.32" width="55.85" height="55.85"/><rect x="1107.03" y="996.32" width="55.85" height="55.85"/><rect x="1273.08" y="996.32" width="55.85" height="55.85"/><rect x="1383.78" y="996.32" width="55.85" height="55.85"/><rect x="1439.14" y="996.32" width="55.85" height="55.85"/><rect x="1494.49" y="996.32" width="55.85" height="55.85"/><rect x="1549.84" y="996.32" width="55.85" height="55.85"/><rect x="1660.54" y="996.32" width="55.85" height="55.85"/><rect x="1771.24" y="996.32" width="55.85" height="55.85"/><rect x="276.76" y="1051.68" width="55.85" height="55.85"/><rect x="442.81" y="1051.68" width="55.85" height="55.85"/><rect x="498.16" y="1051.68" width="55.85" height="55.85"/><rect x="664.22" y="1051.68" width="55.85" height="55.85"/><rect x="719.57" y="1051.68" width="55.85" height="55.85"/><rect x="830.27" y="1051.68" width="55.85" height="55.85"/><rect x="885.62" y="1051.68" width="55.85" height="55.85"/><rect x="1051.68" y="1051.68" width="55.85" height="55.85"/><rect x="1494.49" y="1051.68" width="55.85" height="55.85"/><rect x="1549.84" y="1051.68" width="55.85" height="55.85"/><rect x="1660.54" y="1051.68" width="55.85" height="55.85"/><rect x="1771.24" y="1051.68" width="55.85" height="55.85"/><rect x="221.41" y="1107.03" width="55.85" height="55.85"/><rect x="276.76" y="1107.03" width="55.85" height="55.85"/><rect x="387.46" y="1107.03" width="55.85" height="55.85"/><rect x="442.81" y="1107.03" width="55.85" height="55.85"/><rect x="553.51" y="1107.03" width="55.85" height="55.85"/><rect x="664.22" y="1107.03" width="55.85" height="55.85"/><rect x="774.92" y="1107.03" width="55.85" height="55.85"/><rect x="830.27" y="1107.03" width="55.85" height="55.85"/><rect x="996.32" y="1107.03" width="55.85" height="55.85"/><rect x="1107.03" y="1107.03" width="55.85" height="55.85"/><rect x="1328.43" y="1107.03" width="55.85" height="55.85"/><rect x="1383.78" y="1107.03" width="55.85" height="55.85"/><rect x="1605.19" y="1107.03" width="55.85" height="55.85"/><rect x="221.41" y="1162.38" width="55.85" height="55.85"/><rect x="664.22" y="1162.38" width="55.85" height="55.85"/><rect x="774.92" y="1162.38" width="55.85" height="55.85"/><rect x="830.27" y="1162.38" width="55.85" height="55.85"/><rect x="885.62" y="1162.38" width="55.85" height="55.85"/><rect x="940.97" y="1162.38" width="55.85" height="55.85"/><rect x="996.32" y="1162.38" width="55.85" height="55.85"/><rect x="1107.03" y="1162.38" width="55.85" height="55.85"/><rect x="1217.73" y="1162.38" width="55.85" height="55.85"/><rect x="1273.08" y="1162.38" width="55.85" height="55.85"/><rect x="1328.43" y="1162.38" width="55.85" height="55.85"/><rect x="1549.84" y="1162.38" width="55.85" height="55.85"/><rect x="1660.54" y="1162.38" width="55.85" height="55.85"/><rect x="1715.89" y="1162.38" width="55.85" height="55.85"/><rect x="221.41" y="1217.73" width="55.85" height="55.85"/><rect x="276.76" y="1217.73" width="55.85" height="55.85"/><rect x="332.11" y="1217.73" width="55.85" height="55.85"/><rect x="553.51" y="1217.73" width="55.85" height="55.85"/><rect x="608.86" y="1217.73" width="55.85" height="55.85"/><rect x="719.57" y="1217.73" width="55.85" height="55.85"/><rect x="830.27" y="1217.73" width="55.85" height="55.85"/><rect x="1051.68" y="1217.73" width="55.85" height="55.85"/><rect x="1217.73" y="1217.73" width="55.85" height="55.85"/><rect x="1273.08" y="1217.73" width="55.85" height="55.85"/><rect x="1494.49" y="1217.73" width="55.85" height="55.85"/><rect x="1549.84" y="1217.73" width="55.85" height="55.85"/><rect x="1605.19" y="1217.73" width="55.85" height="55.85"/><rect x="1771.24" y="1217.73" width="55.85" height="55.85"/><rect x="221.41" y="1273.08" width="55.85" height="55.85"/><rect x="276.76" y="1273.08" width="55.85" height="55.85"/><rect x="332.11" y="1273.08" width="55.85" height="55.85"/><rect x="387.46" y="1273.08" width="55.85" height="55.85"/><rect x="442.81" y="1273.08" width="55.85" height="55.85"/><rect x="498.16" y="1273.08" width="55.85" height="55.85"/><rect x="719.57" y="1273.08" width="55.85" height="55.85"/><rect x="774.92" y="1273.08" width="55.85" height="55.85"/><rect x="996.32" y="1273.08" width="55.85" height="55.85"/><rect x="1439.14" y="1273.08" width="55.85" height="55.85"/><rect x="1494.49" y="1273.08" width="55.85" height="55.85"/><rect x="1605.19" y="1273.08" width="55.85" height="55.85"/><rect x="1660.54" y="1273.08" width="55.85" height="55.85"/><rect x="221.41" y="1328.43" width="55.85" height="55.85"/><rect x="276.76" y="1328.43" width="55.85" height="55.85"/><rect x="332.11" y="1328.43" width="55.85" height="55.85"/><rect x="387.46" y="1328.43" width="55.85" height="55.85"/><rect x="442.81" y="1328.43" width="55.85" height="55.85"/><rect x="498.16" y="1328.43" width="55.85" height="55.85"/><rect x="553.51" y="1328.43" width="55.85" height="55.85"/><rect x="608.86" y="1328.43" width="55.85" height="55.85"/><rect x="830.27" y="1328.43" width="55.85" height="55.85"/><rect x="940.97" y="1328.43" width="55.85" height="55.85"/><rect x="996.32" y="1328.43" width="55.85" height="55.85"/><rect x="1051.68" y="1328.43" width="55.85" height="55.85"/><rect x="1107.03" y="1328.43" width="55.85" height="55.85"/><rect x="1162.38" y="1328.43" width="55.85" height="55.85"/><rect x="1217.73" y="1328.43" width="55.85" height="55.85"/><rect x="1328.43" y="1328.43" width="55.85" height="55.85"/><rect x="1383.78" y="1328.43" width="55.85" height="55.85"/><rect x="1439.14" y="1328.43" width="55.85" height="55.85"/><rect x="1494.49" y="1328.43" width="55.85" height="55.85"/><rect x="1549.84" y="1328.43" width="55.85" height="55.85"/><rect x="1605.19" y="1328.43" width="55.85" height="55.85"/><rect x="1660.54" y="1328.43" width="55.85" height="55.85"/><rect x="1715.89" y="1328.43" width="55.85" height="55.85"/><rect x="664.22" y="1383.78" width="55.85" height="55.85"/><rect x="719.57" y="1383.78" width="55.85" height="55.85"/><rect x="885.62" y="1383.78" width="55.85" height="55.85"/><rect x="996.32" y="1383.78" width="55.85" height="55.85"/><rect x="1162.38" y="1383.78" width="55.85" height="55.85"/><rect x="1217.73" y="1383.78" width="55.85" height="55.85"/><rect x="1328.43" y="1383.78" width="55.85" height="55.85"/><rect x="1549.84" y="1383.78" width="55.85" height="55.85"/><rect x="1605.19" y="1383.78" width="55.85" height="55.85"/><rect x="221.41" y="1439.14" width="55.85" height="55.85"/><rect x="276.76" y="1439.14" width="55.85" height="55.85"/><rect x="332.11" y="1439.14" width="55.85" height="55.85"/><rect x="387.46" y="1439.14" width="55.85" height="55.85"/><rect x="442.81" y="1439.14" width="55.85" height="55.85"/><rect x="498.16" y="1439.14" width="55.85" height="55.85"/><rect x="553.51" y="1439.14" width="55.85" height="55.85"/><rect x="664.22" y="1439.14" width="55.85" height="55.85"/><rect x="719.57" y="1439.14" width="55.85" height="55.85"/><rect x="774.92" y="1439.14" width="55.85" height="55.85"/><rect x="830.27" y="1439.14" width="55.85" height="55.85"/><rect x="885.62" y="1439.14" width="55.85" height="55.85"/><rect x="996.32" y="1439.14" width="55.85" height="55.85"/><rect x="1273.08" y="1439.14" width="55.85" height="55.85"/><rect x="1328.43" y="1439.14" width="55.85" height="55.85"/><rect x="1439.14" y="1439.14" width="55.85" height="55.85"/><rect x="1549.84" y="1439.14" width="55.85" height="55.85"/><rect x="1605.19" y="1439.14" width="55.85" height="55.85"/><rect x="221.41" y="1494.49" width="55.85" height="55.85"/><rect x="553.51" y="1494.49" width="55.85" height="55.85"/><rect x="664.22" y="1494.49" width="55.85" height="55.85"/><rect x="719.57" y="1494.49" width="55.85" height="55.85"/><rect x="774.92" y="1494.49" width="55.85" height="55.85"/><rect x="996.32" y="1494.49" width="55.85" height="55.85"/><rect x="1051.68" y="1494.49" width="55.85" height="55.85"/><rect x="1162.38" y="1494.49" width="55.85" height="55.85"/><rect x="1273.08" y="1494.49" width="55.85" height="55.85"/><rect x="1328.43" y="1494.49" width="55.85" height="55.85"/><rect x="1549.84" y="1494.49" width="55.85" height="55.85"/><rect x="1771.24" y="1494.49" width="55.85" height="55.85"/><rect x="221.41" y="1549.84" width="55.85" height="55.85"/><rect x="332.11" y="1549.84" width="55.85" height="55.85"/><rect x="387.46" y="1549.84" width="55.85" height="55.85"/><rect x="442.81" y="1549.84" width="55.85" height="55.85"/><rect x="553.51" y="1549.84" width="55.85" height="55.85"/><rect x="664.22" y="1549.84" width="55.85" height="55.85"/><rect x="719.57" y="1549.84" width="55.85" height="55.85"/><rect x="940.97" y="1549.84" width="55.85" height="55.85"/><rect x="996.32" y="1549.84" width="55.85" height="55.85"/><rect x="1162.38" y="1549.84" width="55.85" height="55.85"/><rect x="1217.73" y="1549.84" width="55.85" height="55.85"/><rect x="1273.08" y="1549.84" width="55.85" height="55.85"/><rect x="1328.43" y="1549.84" width="55.85" height="55.85"/><rect x="1383.78" y="1549.84" width="55.85" height="55.85"/><rect x="1439.14" y="1549.84" width="55.85" height="55.85"/><rect x="1494.49" y="1549.84" width="55.85" height="55.85"/><rect x="1549.84" y="1549.84" width="55.85" height="55.85"/><rect x="1605.19" y="1549.84" width="55.85" height="55.85"/><rect x="221.41" y="1605.19" width="55.85" height="55.85"/><rect x="332.11" y="1605.19" width="55.85" height="55.85"/><rect x="387.46" y="1605.19" width="55.85" height="55.85"/><rect x="442.81" y="1605.19" width="55.85" height="55.85"/><rect x="553.51" y="1605.19" width="55.85" height="55.85"/><rect x="664.22" y="1605.19" width="55.85" height="55.85"/><rect x="774.92" y="1605.19" width="55.85" height="55.85"/><rect x="830.27" y="1605.19" width="55.85" height="55.85"/><rect x="1162.38" y="1605.19" width="55.85" height="55.85"/><rect x="1217.73" y="1605.19" width="55.85" height="55.85"/><rect x="1273.08" y="1605.19" width="55.85" height="55.85"/><rect x="1383.78" y="1605.19" width="55.85" height="55.85"/><rect x="1715.89" y="1605.19" width="55.85" height="55.85"/><rect x="221.41" y="1660.54" width="55.85" height="55.85"/><rect x="332.11" y="1660.54" width="55.85" height="55.85"/><rect x="387.46" y="1660.54" width="55.85" height="55.85"/><rect x="442.81" y="1660.54" width="55.85" height="55.85"/><rect x="553.51" y="1660.54" width="55.85" height="55.85"/><rect x="774.92" y="1660.54" width="55.85" height="55.85"/><rect x="830.27" y="1660.54" width="55.85" height="55.85"/><rect x="940.97" y="1660.54" width="55.85" height="55.85"/><rect x="1051.68" y="1660.54" width="55.85" height="55.85"/><rect x="1162.38" y="1660.54" width="55.85" height="55.85"/><rect x="1273.08" y="1660.54" width="55.85" height="55.85"/><rect x="1494.49" y="1660.54" width="55.85" height="55.85"/><rect x="1549.84" y="1660.54" width="55.85" height="55.85"/><rect x="1660.54" y="1660.54" width="55.85" height="55.85"/><rect x="1715.89" y="1660.54" width="55.85" height="55.85"/><rect x="1771.24" y="1660.54" width="55.85" height="55.85"/><rect x="221.41" y="1715.89" width="55.85" height="55.85"/><rect x="553.51" y="1715.89" width="55.85" height="55.85"/><rect x="719.57" y="1715.89" width="55.85" height="55.85"/><rect x="830.27" y="1715.89" width="55.85" height="55.85"/><rect x="1107.03" y="1715.89" width="55.85" height="55.85"/><rect x="1162.38" y="1715.89" width="55.85" height="55.85"/><rect x="1217.73" y="1715.89" width="55.85" height="55.85"/><rect x="1273.08" y="1715.89" width="55.85" height="55.85"/><rect x="1439.14" y="1715.89" width="55.85" height="55.85"/><rect x="1605.19" y="1715.89" width="55.85" height="55.85"/><rect x="1660.54" y="1715.89" width="55.85" height="55.85"/><rect x="1771.24" y="1715.89" width="55.85" height="55.85"/><rect x="221.41" y="1771.24" width="55.85" height="55.85"/><rect x="276.76" y="1771.24" width="55.85" height="55.85"/><rect x="332.11" y="1771.24" width="55.85" height="55.85"/><rect x="387.46" y="1771.24" width="55.85" height="55.85"/><rect x="442.81" y="1771.24" width="55.85" height="55.85"/><rect x="498.16" y="1771.24" width="55.85" height="55.85"/><rect x="553.51" y="1771.24" width="55.85" height="55.85"/><rect x="664.22" y="1771.24" width="55.85" height="55.85"/><rect x="719.57" y="1771.24" width="55.85" height="55.85"/><rect x="774.92" y="1771.24" width="55.85" height="55.85"/><rect x="830.27" y="1771.24" width="55.85" height="55.85"/><rect x="885.62" y="1771.24" width="55.85" height="55.85"/><rect x="940.97" y="1771.24" width="55.85" height="55.85"/><rect x="1051.68" y="1771.24" width="55.85" height="55.85"/><rect x="1162.38" y="1771.24" width="55.85" height="55.85"/><rect x="1273.08" y="1771.24" width="55.85" height="55.85"/><rect x="1328.43" y="1771.24" width="55.85" height="55.85"/><rect x="1383.78" y="1771.24" width="55.85" height="55.85"/><rect x="1549.84" y="1771.24" width="55.85" height="55.85"/></g></svg>